#N canvas 152 152 1920 944 12;
#X msg 116 309 add2 \$1;
#X obj 116 354 textfile;
#X obj 148 79 list length;
#X msg 175 120 resize \$1;
#X obj 234 495 array set \$0-sort;
#X obj 234 344 list split;
#X obj 234 390 list;
#X obj 262 365 list split 1;
#X obj 234 323 array get \$0-sort;
#X obj 148 100 t f f;
#X obj 234 302 t b f;
#X msg 73 331 rewind \, bang \, clear;
#X obj 116 246 sel 0 1;
#X obj 101 35 inlet;
#X obj 116 375 outlet;
#X obj 131 204 inlet;
#X obj 135 267 array max \$0-sort;
#X obj 116 288 array min \$0-sort;
#X obj 116 183 until;
#X obj 116 162 f;
#X obj 261 474 array define \$0-sort;
#X obj 261 432 list length;
#X msg 261 453 resize \$1;
#X obj 234 411 t l l;
#X obj 132 141 array set \$0-sort;
#X obj 116 225 f 0;
#X obj 101 56 t b b l l b;
#X connect 0 0 1 0;
#X connect 1 0 14 0;
#X connect 2 0 9 0;
#X connect 3 0 20 0;
#X connect 5 0 6 0;
#X connect 5 1 7 0;
#X connect 6 0 23 0;
#X connect 7 1 6 1;
#X connect 8 0 5 0;
#X connect 9 0 19 1;
#X connect 9 1 3 0;
#X connect 10 0 8 0;
#X connect 10 1 5 1;
#X connect 11 0 1 0;
#X connect 12 0 17 0;
#X connect 12 1 16 0;
#X connect 13 0 26 0;
#X connect 15 0 25 1;
#X connect 16 0 0 0;
#X connect 16 1 10 0;
#X connect 17 0 0 0;
#X connect 17 1 10 0;
#X connect 18 0 25 0;
#X connect 19 0 18 0;
#X connect 21 0 22 0;
#X connect 22 0 20 0;
#X connect 23 0 4 0;
#X connect 23 1 21 0;
#X connect 25 0 12 0;
#X connect 26 0 11 0;
#X connect 26 1 19 0;
#X connect 26 2 24 0;
#X connect 26 3 2 0;
#X connect 26 4 6 1;
