#N canvas 55 82 504 600 12;
#X obj 51 46 inlet;
#X obj 52 508 outlet;
#X msg 260 284 bang;
#X msg 182 239 bang;
#X obj 182 304 timer;
#X floatatom 182 330 0 0 0 0 - - -;
#X obj 51 71 f;
#X obj 51 101 change;
#X obj 182 358 >= \$1;
#X obj 260 247 metro 1;
#X obj 260 213 tgl 15 0 empty empty empty 17 7 0 10 -262144 -1 -1 0
1;
#X obj 182 388 sel 1;
#X msg 260 176 1;
#X obj 182 418 t b b;
#X msg 214 449 0;
#X obj 51 473 v \$0-num(timed);
#X obj 51 126 t f b b;
#X obj 216 481 s \$0-num(timed)metro;
#X obj 302 176 r \$0-num(timed)metro;
#X connect 0 0 6 0;
#X connect 2 0 4 1;
#X connect 3 0 4 0;
#X connect 4 0 5 0;
#X connect 5 0 8 0;
#X connect 6 0 7 0;
#X connect 7 0 16 0;
#X connect 8 0 11 0;
#X connect 9 0 2 0;
#X connect 10 0 9 0;
#X connect 11 0 13 0;
#X connect 12 0 10 0;
#X connect 13 0 15 0;
#X connect 13 1 14 0;
#X connect 14 0 17 0;
#X connect 15 0 1 0;
#X connect 16 0 15 0;
#X connect 16 1 12 0;
#X connect 16 2 3 0;
#X connect 18 0 10 0;
