#N canvas 1915 0 1920 944 12;
#X obj 13 15 inlet;
#X obj 13 111 sel 1;
#X obj 108 39 outlet;
#X obj 159 39 outlet;
#X obj 210 39 outlet;
#X msg 13 63 0 0 0 0 0 0 0 0 0 0 0 0 0 0 0 0 0 0 0 0 0 0 0 0 0 0 0 0 0 0 0 0, f 64;
#X msg 475 58 1;
#X msg 981 58 1;
#X msg 519 58 0 0 0 0 0 0 0 0 0 0 0 0 0 0 0 0 0 0 0 0 0 0 0 0 0 0 0 0 0 0 0 0, f 64;
#X obj 57 39 outlet;
#X obj 57 15 r Apat;
#X obj 108 15 r Ast;
#X obj 159 15 r Bpat;
#X obj 210 15 r Bst;
#X obj 13 87 s Apat;
#X obj 475 82 s Ast;
#X obj 519 82 s Bpat;
#X obj 981 82 s Bst;
#X obj 13 159 s Apat;
#X obj 475 154 s Ast;
#X obj 519 154 s Bpat;
#X obj 981 154 s Bst;
#X obj 13 303 s Apat;
#X obj 475 298 s Ast;
#X obj 519 298 s Bpat;
#X obj 981 298 s Bst;
#X obj 13 39 sel 0;
#X obj 13 375 s Apat;
#X obj 475 370 s Ast;
#X obj 519 370 s Bpat;
#X obj 981 370 s Bst;
#X obj 13 231 s Apat;
#X obj 475 226 s Ast;
#X obj 519 226 s Bpat;
#X obj 981 226 s Bst;
#X msg 475 202 4;
#X obj 13 519 s Apat;
#X obj 475 514 s Ast;
#X obj 519 514 s Bpat;
#X obj 981 514 s Bst;
#X msg 519 490 1 1 1 1 1 1 1 1 1 1 1 1 1 1 1 1 0 0 0 0 0 0 0 0 0 0 0 0 0 0 0 0, f 64;
#X msg 981 490 16;
#X msg 475 490 23;
#X msg 13 495 1 0 1 0 1 0 1 1 1 1 0 1 0 1 1 1 1 0 1 0 1 1 1 0 0 0 0 0 0 0 0 0, f 64;
#X obj 13 447 s Apat;
#X obj 475 442 s Ast;
#X obj 519 442 s Bpat;
#X obj 981 442 s Bst;
#X msg 981 418 12;
#X msg 519 418 1 1 1 1 1 1 1 1 1 1 1 1 0 0 0 0 0 0 0 0 0 0 0 0 0 0 0 0 0 0 0 0, f 64;
#X msg 13 423 1 0 1 1 0 1 1 0 1 0 1 1 0 1 1 0 1 1 0 0 0 0 0 0 0 0 0 0 0 0 0 0, f 64;
#X msg 475 418 19;
#X msg 13 351 1 1 0 1 0 1 0 1 1 0 1 0 1 0 1 0 0 0 0 0 0 0 0 0 0 0 0 0 0 0 0 0, f 64;
#X msg 475 346 16;
#X msg 519 346 1 1 1 1 1 1 1 1 1 0 0 0 0 0 0 0 0 0 0 0 0 0 0 0 0 0 0 0 0 0 0, f 64;
#X msg 981 346 9;
#X msg 13 279 1 0 1 1 0 1 1 0 0 0 0 0 0 0 0 0 0 0 0 0 0 0 0 0 0 0 0 0 0 0 0 0, f 64;
#X msg 475 274 8;
#X msg 981 274 5;
#X msg 519 274 1 1 1 1 1 0 0 0 0 0 0 0 0 0 0 0 0 0 0 0 0 0 0 0 0 0 0 0 0 0 0 0, f 64;
#X msg 981 130 2;
#X msg 519 130 1 1 0 0 0 0 0 0 0 0 0 0 0 0 0 0 0 0 0 0 0 0 0 0 0 0 0 0 0 0 0 0, f 64;
#X msg 13 207 1 0 1 1 0 0 0 0 0 0 0 0 0 0 0 0 0 0 0 0 0 0 0 0 0 0 0 0 0 0 0 0, f 64;
#X msg 981 202 3;
#X msg 519 202 1 1 1 0 0 0 0 0 0 0 0 0 0 0 0 0 0 0 0 0 0 0 0 0 0 0 0 0 0 0 0 0, f 64;
#X obj 13 183 sel 2;
#X obj 13 255 sel 3;
#X obj 13 327 sel 4;
#X obj 13 399 sel 5;
#X obj 13 471 sel 6;
#X msg 35 577 1 0 1 1 0 1 1 0 1 0 1 1 0 1 1 0 1 1 0 a 0 0 0 0 0 0 0 0 0 0 0 0, f 64;
#X msg 475 130 3;
#X msg 13 135 1 0 1 0 0 0 0 0 0 0 0 0 0 0 0 0 0 0 0 0 0 0 0 0 0 0 0 0 0 0 0 0, f 64;
#X connect 0 0 1 0;
#X connect 0 0 26 0;
#X connect 0 0 65 0;
#X connect 0 0 66 0;
#X connect 0 0 67 0;
#X connect 0 0 68 0;
#X connect 0 0 69 0;
#X connect 1 0 72 0;
#X connect 1 0 71 0;
#X connect 1 0 61 0;
#X connect 1 0 60 0;
#X connect 5 0 14 0;
#X connect 6 0 15 0;
#X connect 7 0 17 0;
#X connect 8 0 16 0;
#X connect 10 0 9 0;
#X connect 11 0 2 0;
#X connect 12 0 3 0;
#X connect 13 0 4 0;
#X connect 26 0 5 0;
#X connect 26 0 6 0;
#X connect 26 0 8 0;
#X connect 26 0 7 0;
#X connect 35 0 32 0;
#X connect 40 0 38 0;
#X connect 41 0 39 0;
#X connect 42 0 37 0;
#X connect 43 0 36 0;
#X connect 48 0 47 0;
#X connect 49 0 46 0;
#X connect 50 0 44 0;
#X connect 51 0 45 0;
#X connect 52 0 27 0;
#X connect 53 0 28 0;
#X connect 54 0 29 0;
#X connect 55 0 30 0;
#X connect 56 0 22 0;
#X connect 57 0 23 0;
#X connect 58 0 25 0;
#X connect 59 0 24 0;
#X connect 60 0 21 0;
#X connect 61 0 20 0;
#X connect 62 0 31 0;
#X connect 63 0 34 0;
#X connect 64 0 33 0;
#X connect 65 0 62 0;
#X connect 65 0 35 0;
#X connect 65 0 64 0;
#X connect 65 0 63 0;
#X connect 66 0 56 0;
#X connect 66 0 57 0;
#X connect 66 0 59 0;
#X connect 66 0 58 0;
#X connect 67 0 52 0;
#X connect 67 0 53 0;
#X connect 67 0 54 0;
#X connect 67 0 55 0;
#X connect 68 0 50 0;
#X connect 68 0 51 0;
#X connect 68 0 49 0;
#X connect 68 0 48 0;
#X connect 69 0 42 0;
#X connect 69 0 40 0;
#X connect 69 0 41 0;
#X connect 69 0 43 0;
#X connect 71 0 19 0;
#X connect 72 0 18 0;
